<?xml version="1.0" encoding="UTF-8" standalone="no"?>
<svg
   xmlns:dc="http://purl.org/dc/elements/1.1/"
   xmlns:cc="http://creativecommons.org/ns#"
   xmlns:rdf="http://www.w3.org/1999/02/22-rdf-syntax-ns#"
   xmlns:svg="http://www.w3.org/2000/svg"
   xmlns="http://www.w3.org/2000/svg"
   viewBox="0 0 193.74001 315.70874"
   height="315.70874"
   width="193.74001"
   xml:space="preserve"
   version="1.1"
   id="svg2"><metadata
     id="metadata8"><rdf:RDF><cc:Work
         rdf:about=""><dc:format>image/svg+xml</dc:format><dc:type
           rdf:resource="http://purl.org/dc/dcmitype/StillImage" /><dc:title></dc:title></cc:Work></rdf:RDF></metadata><defs
     id="defs6"><clipPath
       id="clipPath16"
       clipPathUnits="userSpaceOnUse"><path
         id="path18"
         d="m 0,252.567 154.992,0 L 154.992,0 0,0 0,252.567 Z" /></clipPath></defs><g
     transform="matrix(1.25,0,0,-1.25,0,315.70875)"
     id="g10"><g
       id="g12"><g
         clip-path="url(#clipPath16)"
         id="g14"><g
           transform="translate(153.8984,116.2441)"
           id="g20"><path
             id="path22"
             style="fill:none;stroke:#231f20;stroke-width:1;stroke-linecap:butt;stroke-linejoin:miter;stroke-miterlimit:4;stroke-dasharray:none;stroke-opacity:1"
             d="m 0,0 c 0,-42.248 -34.248,-76.496 -76.496,-76.496 -42.248,0 -76.496,34.248 -76.496,76.496 0,42.248 34.248,76.496 76.496,76.496 C -34.248,76.496 0,42.248 0,0 Z" /></g><g
           transform="translate(1,232.4883)"
           id="g24"><path
             id="path26"
             style="fill:none;stroke:#231f20;stroke-width:2;stroke-linecap:butt;stroke-linejoin:miter;stroke-miterlimit:4;stroke-dasharray:none;stroke-opacity:1"
             d="M 0,0 0,-232.488" /></g><g
           transform="translate(153.9922,232.4883)"
           id="g28"><path
             id="path30"
             style="fill:none;stroke:#231f20;stroke-width:2;stroke-linecap:butt;stroke-linejoin:miter;stroke-miterlimit:4;stroke-dasharray:none;stroke-opacity:1"
             d="M 0,0 0,-232.488" /></g><g
           transform="translate(1,232.4883)"
           id="g32"><path
             id="path34"
             style="fill:none;stroke:#231f20;stroke-width:1;stroke-linecap:butt;stroke-linejoin:miter;stroke-miterlimit:4;stroke-dasharray:none;stroke-opacity:1"
             d="m 0,0 c 0,10.813 34.248,19.579 76.496,19.579 42.248,0 76.496,-8.766 76.496,-19.579" /></g><g
           transform="translate(1,0)"
           id="g36"><path
             id="path38"
             style="fill:none;stroke:#231f20;stroke-width:1;stroke-linecap:butt;stroke-linejoin:miter;stroke-miterlimit:4;stroke-dasharray:none;stroke-opacity:1"
             d="m 0,0 c 0,10.813 34.248,19.579 76.496,19.579 42.248,0 76.496,-8.766 76.496,-19.579" /></g><g
           transform="translate(77.4023,232.4883)"
           id="g40"><path
             id="path42"
             style="fill:none;stroke:#231f20;stroke-width:1;stroke-linecap:butt;stroke-linejoin:miter;stroke-miterlimit:4;stroke-dasharray:4, 3;stroke-dashoffset:0;stroke-opacity:1"
             d="M 0,0 0,-232.488" /></g><g
           transform="translate(77.4023,192.9092)"
           id="g44"><path
             id="path46"
             style="fill:none;stroke:#ed1c24;stroke-width:2;stroke-linecap:butt;stroke-linejoin:miter;stroke-miterlimit:4;stroke-dasharray:none;stroke-opacity:1"
             d="M 0,0 76.59,0" /></g><g
           transform="translate(77.4023,78.0381)"
           id="g48"><path
             id="path50"
             style="fill:none;stroke:#ed1c24;stroke-width:2;stroke-linecap:butt;stroke-linejoin:miter;stroke-miterlimit:4;stroke-dasharray:none;stroke-opacity:1"
             d="M 0,0 76.59,0" /></g><g
           transform="translate(77.4023,154.6191)"
           id="g52"><path
             id="path54"
             style="fill:none;stroke:#ed1c24;stroke-width:2;stroke-linecap:butt;stroke-linejoin:miter;stroke-miterlimit:4;stroke-dasharray:none;stroke-opacity:1"
             d="M 0,0 76.59,0" /></g><g
           transform="translate(77.4023,39.748)"
           id="g56"><path
             id="path58"
             style="fill:none;stroke:#ed1c24;stroke-width:2;stroke-linecap:butt;stroke-linejoin:miter;stroke-miterlimit:4;stroke-dasharray:none;stroke-opacity:1"
             d="M 0,0 76.59,0" /></g><g
           transform="translate(77.3086,116.3286)"
           id="g60"><path
             id="path62"
             style="fill:none;stroke:#ed1c24;stroke-width:2;stroke-linecap:butt;stroke-linejoin:miter;stroke-miterlimit:4;stroke-dasharray:none;stroke-opacity:1"
             d="M 0,0 76.59,0" /></g></g></g></g></svg>